<svg xmlns="http://www.w3.org/2000/svg" width="1400" height="610" viewBox="0 0 1400 610"><defs><marker id="arrow" markerWidth="10" markerHeight="10" refX="8" refY="3" orient="auto"><path d="M0,0 L0,6 L9,3 z" fill="#2F6FA5"/></marker><filter id="shadow"><feDropShadow dx="0" dy="3" stdDeviation="4" flood-color="#173B63" flood-opacity="0.14"/></filter></defs><rect width="100%" height="100%" fill="white"/><text x="700.0" y="48" text-anchor="middle" font-family="Microsoft YaHei, Noto Sans CJK SC, Arial, sans-serif" font-size="30" font-weight="700" fill="#173B63">固定特征模型：线性规则、条件划分与非线性组合</text><rect x="35" y="90" width="430" height="450" rx="20" fill="#EAF3FA" stroke="#2F6FA5" stroke-width="2"/><text x="250" y="130" text-anchor="middle" font-family="Microsoft YaHei, Noto Sans CJK SC, Arial, sans-serif" font-size="23" font-weight="700" fill="#173B63">线性 / 逻辑回归</text><rect x="485" y="90" width="430" height="450" rx="20" fill="#E8F5EF" stroke="#3A8D6D" stroke-width="2"/><text x="700" y="130" text-anchor="middle" font-family="Microsoft YaHei, Noto Sans CJK SC, Arial, sans-serif" font-size="23" font-weight="700" fill="#173B63">决策树</text><rect x="935" y="90" width="430" height="450" rx="20" fill="#FFF1E3" stroke="#F28E2B" stroke-width="2"/><text x="1150" y="130" text-anchor="middle" font-family="Microsoft YaHei, Noto Sans CJK SC, Arial, sans-serif" font-size="23" font-weight="700" fill="#173B63">MLP</text><rect x="75" y="170" width="90" height="52" rx="16" fill="#F4F6F8" stroke="#2F6FA5" stroke-width="2" filter="url(#shadow)"/><text x="120.0" y="206" text-anchor="middle" font-family="Microsoft YaHei, Noto Sans CJK SC, Arial, sans-serif" font-size="18" font-weight="700" fill="#173B63">x₁</text><rect x="75" y="245" width="90" height="52" rx="16" fill="#F4F6F8" stroke="#2F6FA5" stroke-width="2" filter="url(#shadow)"/><text x="120.0" y="281" text-anchor="middle" font-family="Microsoft YaHei, Noto Sans CJK SC, Arial, sans-serif" font-size="18" font-weight="700" fill="#173B63">x₂</text><rect x="75" y="320" width="90" height="52" rx="16" fill="#F4F6F8" stroke="#2F6FA5" stroke-width="2" filter="url(#shadow)"/><text x="120.0" y="356" text-anchor="middle" font-family="Microsoft YaHei, Noto Sans CJK SC, Arial, sans-serif" font-size="18" font-weight="700" fill="#173B63">x₃</text><rect x="225" y="225" width="160" height="75" rx="16" fill="#EAF3FA" stroke="#2F6FA5" stroke-width="2" filter="url(#shadow)"/><text x="305.0" y="261" text-anchor="middle" font-family="Microsoft YaHei, Noto Sans CJK SC, Arial, sans-serif" font-size="18" font-weight="700" fill="#173B63">加权求和</text><text x="305.0" y="291" text-anchor="middle" font-family="Microsoft YaHei, Noto Sans CJK SC, Arial, sans-serif" font-size="15" fill="#5B6770">w·x + b</text><line x1="165" y1="196" x2="215" y2="246" stroke="#2F6FA5" stroke-width="3" marker-end="url(#arrow)"/><line x1="165" y1="271" x2="215" y2="270" stroke="#2F6FA5" stroke-width="3" marker-end="url(#arrow)"/><line x1="165" y1="346" x2="215" y2="294" stroke="#2F6FA5" stroke-width="3" marker-end="url(#arrow)"/><rect x="225" y="350" width="160" height="75" rx="16" fill="#FFF1E3" stroke="#F28E2B" stroke-width="2" filter="url(#shadow)"/><text x="305.0" y="386" text-anchor="middle" font-family="Microsoft YaHei, Noto Sans CJK SC, Arial, sans-serif" font-size="18" font-weight="700" fill="#173B63">Sigmoid</text><text x="305.0" y="416" text-anchor="middle" font-family="Microsoft YaHei, Noto Sans CJK SC, Arial, sans-serif" font-size="15" fill="#5B6770">点击概率</text><line x1="305" y1="300" x2="305" y2="340" stroke="#2F6FA5" stroke-width="3" marker-end="url(#arrow)"/><rect x="610" y="165" width="180" height="65" rx="16" fill="#E8F5EF" stroke="#3A8D6D" stroke-width="2" filter="url(#shadow)"/><text x="700.0" y="201" text-anchor="middle" font-family="Microsoft YaHei, Noto Sans CJK SC, Arial, sans-serif" font-size="18" font-weight="700" fill="#173B63">有历史交互？</text><line x1="650" y1="230" x2="570" y2="300" stroke="#2F6FA5" stroke-width="3" marker-end="url(#arrow)"/><line x1="750" y1="230" x2="815" y2="300" stroke="#2F6FA5" stroke-width="3" marker-end="url(#arrow)"/><rect x="515" y="310" width="140" height="65" rx="16" fill="#F4F6F8" stroke="#5B6770" stroke-width="2" filter="url(#shadow)"/><text x="585.0" y="346" text-anchor="middle" font-family="Microsoft YaHei, Noto Sans CJK SC, Arial, sans-serif" font-size="18" font-weight="700" fill="#173B63">否</text><text x="585.0" y="376" text-anchor="middle" font-family="Microsoft YaHei, Noto Sans CJK SC, Arial, sans-serif" font-size="14" fill="#5B6770">低分</text><rect x="745" y="310" width="140" height="65" rx="16" fill="#E8F5EF" stroke="#3A8D6D" stroke-width="2" filter="url(#shadow)"/><text x="815" y="346" text-anchor="middle" font-family="Microsoft YaHei, Noto Sans CJK SC, Arial, sans-serif" font-size="18" font-weight="700" fill="#173B63">是</text><text x="815" y="376" text-anchor="middle" font-family="Microsoft YaHei, Noto Sans CJK SC, Arial, sans-serif" font-size="14" fill="#5B6770">继续划分</text><line x1="815" y1="375" x2="725" y2="430" stroke="#2F6FA5" stroke-width="3" marker-end="url(#arrow)"/><line x1="815" y1="375" x2="840" y2="430" stroke="#2F6FA5" stroke-width="3" marker-end="url(#arrow)"/><rect x="670" y="440" width="110" height="55" rx="16" fill="#F4F6F8" stroke="#5B6770" stroke-width="2" filter="url(#shadow)"/><text x="725" y="476" text-anchor="middle" font-family="Microsoft YaHei, Noto Sans CJK SC, Arial, sans-serif" font-size="17" font-weight="700" fill="#173B63">不同类</text><text x="725" y="506" text-anchor="middle" font-family="Microsoft YaHei, Noto Sans CJK SC, Arial, sans-serif" font-size="13" fill="#5B6770">中分</text><rect x="785" y="440" width="110" height="55" rx="16" fill="#FFF1E3" stroke="#F28E2B" stroke-width="2" filter="url(#shadow)"/><text x="840" y="476" text-anchor="middle" font-family="Microsoft YaHei, Noto Sans CJK SC, Arial, sans-serif" font-size="17" font-weight="700" fill="#173B63">同类</text><text x="840" y="506" text-anchor="middle" font-family="Microsoft YaHei, Noto Sans CJK SC, Arial, sans-serif" font-size="13" fill="#5B6770">高分</text><circle cx="995" cy="205" r="24" fill="#EAF3FA" stroke="#2F6FA5" stroke-width="2"/><circle cx="995" cy="290" r="24" fill="#EAF3FA" stroke="#2F6FA5" stroke-width="2"/><circle cx="995" cy="375" r="24" fill="#EAF3FA" stroke="#2F6FA5" stroke-width="2"/><circle cx="1135" cy="165" r="24" fill="#F0ECF7" stroke="#7B61A8" stroke-width="2"/><circle cx="1135" cy="240" r="24" fill="#F0ECF7" stroke="#7B61A8" stroke-width="2"/><circle cx="1135" cy="315" r="24" fill="#F0ECF7" stroke="#7B61A8" stroke-width="2"/><circle cx="1135" cy="390" r="24" fill="#F0ECF7" stroke="#7B61A8" stroke-width="2"/><circle cx="1270" cy="245" r="24" fill="#FFF1E3" stroke="#F28E2B" stroke-width="2"/><circle cx="1270" cy="330" r="24" fill="#FFF1E3" stroke="#F28E2B" stroke-width="2"/><line x1="1019" y1="205" x2="1111" y2="165" stroke="#2F6FA5" stroke-width="1.3" opacity="0.55"/><line x1="1019" y1="205" x2="1111" y2="240" stroke="#2F6FA5" stroke-width="1.3" opacity="0.55"/><line x1="1019" y1="205" x2="1111" y2="315" stroke="#2F6FA5" stroke-width="1.3" opacity="0.55"/><line x1="1019" y1="205" x2="1111" y2="390" stroke="#2F6FA5" stroke-width="1.3" opacity="0.55"/><line x1="1019" y1="290" x2="1111" y2="165" stroke="#2F6FA5" stroke-width="1.3" opacity="0.55"/><line x1="1019" y1="290" x2="1111" y2="240" stroke="#2F6FA5" stroke-width="1.3" opacity="0.55"/><line x1="1019" y1="290" x2="1111" y2="315" stroke="#2F6FA5" stroke-width="1.3" opacity="0.55"/><line x1="1019" y1="290" x2="1111" y2="390" stroke="#2F6FA5" stroke-width="1.3" opacity="0.55"/><line x1="1019" y1="375" x2="1111" y2="165" stroke="#2F6FA5" stroke-width="1.3" opacity="0.55"/><line x1="1019" y1="375" x2="1111" y2="240" stroke="#2F6FA5" stroke-width="1.3" opacity="0.55"/><line x1="1019" y1="375" x2="1111" y2="315" stroke="#2F6FA5" stroke-width="1.3" opacity="0.55"/><line x1="1019" y1="375" x2="1111" y2="390" stroke="#2F6FA5" stroke-width="1.3" opacity="0.55"/><line x1="1159" y1="165" x2="1246" y2="245" stroke="#7B61A8" stroke-width="1.3" opacity="0.55"/><line x1="1159" y1="165" x2="1246" y2="330" stroke="#7B61A8" stroke-width="1.3" opacity="0.55"/><line x1="1159" y1="240" x2="1246" y2="245" stroke="#7B61A8" stroke-width="1.3" opacity="0.55"/><line x1="1159" y1="240" x2="1246" y2="330" stroke="#7B61A8" stroke-width="1.3" opacity="0.55"/><line x1="1159" y1="315" x2="1246" y2="245" stroke="#7B61A8" stroke-width="1.3" opacity="0.55"/><line x1="1159" y1="315" x2="1246" y2="330" stroke="#7B61A8" stroke-width="1.3" opacity="0.55"/><line x1="1159" y1="390" x2="1246" y2="245" stroke="#7B61A8" stroke-width="1.3" opacity="0.55"/><line x1="1159" y1="390" x2="1246" y2="330" stroke="#7B61A8" stroke-width="1.3" opacity="0.55"/><text x="1135" y="470" text-anchor="middle" font-family="Microsoft YaHei, Noto Sans CJK SC, Arial, sans-serif" font-size="17" font-weight="700" fill="#7B61A8">隐藏层 + 激活函数</text><text x="250" y="575" text-anchor="middle" font-family="Microsoft YaHei, Noto Sans CJK SC, Arial, sans-serif" font-size="18" font-weight="700" fill="#2F6FA5">学习特征权重</text><text x="700" y="575" text-anchor="middle" font-family="Microsoft YaHei, Noto Sans CJK SC, Arial, sans-serif" font-size="18" font-weight="700" fill="#3A8D6D">学习条件规则</text><text x="1150" y="575" text-anchor="middle" font-family="Microsoft YaHei, Noto Sans CJK SC, Arial, sans-serif" font-size="18" font-weight="700" fill="#F28E2B">学习复杂特征组合</text></svg>